<?xml version="1.0" encoding="utf-8"?>
<!DOCTYPE svg PUBLIC "-//W3C//DTD SVG 1.1//EN" "http://www.w3.org/Graphics/SVG/1.1/DTD/svg11.dtd">
<svg style="width:308px;height:308px;" version="1.1" id="图形" xmlns="http://www.w3.org/2000/svg" xmlns:xlink="http://www.w3.org/1999/xlink" x="0px" y="0px" width="1024px" height="1024px" viewBox="0 0 1024 1024" enable-background="new 0 0 1024 1024" xml:space="preserve">
  <path class="svgpath" data-index="path_0" fill="#272636" d="M639.029738 476.080929 682.96719 476.080929 632.25415 700.983165 566.315737 384.79076 460.354178 384.79076 383.665493 700.983165 326.178912 384.79076 215.434224 384.79076 327.858226 893.753587 436.119248 893.753587 511.998465 592.726579 579.864866 893.753587 679.54716 893.753587 808.567822 384.79076 639.029738 384.79076Z" />
<path class="svgpath" data-index="path_1" fill="#272636" d="M901.166501 201.214744 759.097127 59.153238c-30.88874-30.886451-91.979553-56.240909-135.729732-56.240909L146.076805 2.912329c-43.752226 0-79.54792 35.795251-79.54792 79.545684l0 859.083973c0 43.750433 35.795694 79.544661 79.54792 79.544661l731.844343 0c43.752226 0 79.548943-35.794228 79.548943-79.544661L957.470092 337.000314C957.470092 293.250904 932.114595 232.102219 901.166501 201.214744zM702.914292 94.948489c4.288852 2.982938 8.079333 6.089695 11.189288 9.195429l142.06528 142.063553c3.109955 3.106758 6.215817 6.898107 9.262324 11.248182L702.914292 257.455653 702.914292 94.948489zM893.831142 941.541987c0 8.639774-7.333313 15.909341-15.909993 15.909341L146.076805 957.451328c-8.699482 0-15.90897-7.330966-15.90897-15.909341L130.167835 82.458013c0-8.639774 7.333313-15.909341 15.90897-15.909341l477.29059 0c4.722752 0 10.193571 0.620124 15.909993 1.738597l0 252.80268 252.815085 0c1.117496 5.718235 1.738668 11.062963 1.738668 15.909341L893.831142 941.541987z" />

</svg>
