<?xml version="1.0" encoding="utf-8"?>
<!DOCTYPE svg PUBLIC "-//W3C//DTD SVG 1.1//EN" "http://www.w3.org/Graphics/SVG/1.1/DTD/svg11.dtd">
<svg style="width:308px;height:308px;" version="1.1" id="图形" xmlns="http://www.w3.org/2000/svg" xmlns:xlink="http://www.w3.org/1999/xlink" x="0px" y="0px" width="1024px" height="1024px" viewBox="0 0 1024 1024" enable-background="new 0 0 1024 1024" xml:space="preserve">
  <path class="svgpath" data-index="path_0" fill="#f4c600" d="M824.474222 889.824091 199.522708 889.824091c-12.241812 0-22.574135-9.290597-24.02416-21.538549l-39.684838-335.188039C91.866802 510.192841 64.207859 465.044572 64.207859 414.483013c0-73.956386 59.718103-134.085858 133.129066-134.085858 73.410963 0 133.129066 60.129472 133.129066 134.085858 0 12.025894-1.721201 23.941272-5.028527 35.58445l46.217624 0 24.105001-51.54598c-26.290783-29.081339-41.104163-66.798359-41.104163-105.935728 0-87.349417 70.596871-158.409846 157.342538-158.409846 86.747713 0 157.345608 71.059406 157.345608 158.409846 0 39.137369-14.759145 76.854389-41.050951 105.935728l24.078395 51.54598 46.189995 0c-3.361561-11.644201-5.02955-23.506367-5.02955-35.58445 0-73.956386 59.72015-134.085858 133.13009-134.085858 73.384357 0 133.13009 60.129472 133.13009 134.085858 0 50.561559-27.659967 95.709829-71.634504 118.614491l-39.657208 335.188039C847.051427 880.533494 836.720128 889.824091 824.474222 889.824091L824.474222 889.824091zM232.13036 833.850266l559.737234 0 49.880037-320.152601c1.037632-8.967232 6.940063-16.619516 15.305591-19.897166 33.015951-12.792351 54.336536-43.949978 54.336536-79.316463 0-47.063899-37.992289-85.328387-84.72873-85.328387-46.735417 0-84.726683 38.264489-84.726683 85.328387 0 13.500479 3.498684 26.839275 10.331299 39.794331 5.466502 10.222829 2.953262 22.956851-6.010901 30.335912l-10.605545 8.746198c-4.318352 3.551896-9.729595 5.467525-15.304568 5.467525l-83.304288 0c-9.403161 0-17.930371-5.467525-21.919219-13.990642l-37.936007-81.177857c-4.591575-9.837042-2.159176-21.589714 6.011924-28.804023 23.995507-20.992103 37.71702-50.999534 37.71702-82.267679 0-60.45693-48.867988-109.705588-108.915595-109.705588-60.045561 0-108.913549 49.248657-108.913549 109.705588 0 31.212886 13.774725 61.222363 37.771255 82.267679 8.144494 7.215332 10.605545 18.913768 6.012947 28.804023l-37.934984 81.177857c-3.989871 8.578376-12.544711 13.990642-21.920242 13.990642L303.710628 498.828003c-5.577019 0-10.987239-1.915629-15.306614-5.467525l-10.603499-8.746198c-8.93858-7.321756-11.478426-20.060895-6.03853-30.335912 6.803963-12.955056 10.302647-26.348088 10.302647-39.794331 0-47.063899-37.989219-85.328387-84.726683-85.328387-46.735417 0-84.724637 38.264489-84.724637 85.328387 0 35.366486 21.317515 66.524113 54.333466 79.316463 8.363482 3.27765 14.266935 10.930957 15.332197 19.897166L232.13036 833.850266 232.13036 833.850266zM232.13036 833.850266" />

</svg>
