<?xml version="1.0" encoding="utf-8"?>
<!DOCTYPE svg PUBLIC "-//W3C//DTD SVG 1.1//EN" "http://www.w3.org/Graphics/SVG/1.1/DTD/svg11.dtd">
<svg style="width:308px;height:308px;" version="1.1" id="图形" xmlns="http://www.w3.org/2000/svg" xmlns:xlink="http://www.w3.org/1999/xlink" x="0px" y="0px" width="1024px" height="1024px" viewBox="0 0 1024 1024" enable-background="new 0 0 1024 1024" xml:space="preserve">
  <path class="svgpath" data-index="path_0" fill="#56abe4" d="M853.333333 1024 511.455609 820.937435 171.755449 1021.828208 170.666667 135.737009C170.666667 116.914811 174.295942 99.359491 181.554492 83.07105 188.813043 66.782609 198.612086 52.484977 210.951621 40.178155 223.291157 27.871333 237.808258 18.098268 254.502924 10.858961 271.19759 3.619654 288.981038 0 307.85327 0L716.146732 0C735.018959 0 752.620949 3.619654 768.952686 10.858961 785.284423 18.098268 799.620062 27.871333 811.959598 40.178155 824.29913 52.484977 834.098176 66.782609 841.356727 83.07105 848.615278 99.359491 852.244553 116.914811 852.244553 135.737009L853.333333 1024ZM310.613333 573.830095C300.958476 579.193905 288.085333 589.921524 269.312 609.767619 252.14781 628.004571 252.14781 628.004571 244.102095 636.050286L267.702857 662.332952C284.330667 638.73219 285.403429 637.123048 298.812952 622.640762 312.758857 608.158476 320.804571 601.721905 325.632 601.721905 329.386667 601.721905 334.750476 604.94019 339.577905 610.304 359.424 631.759238 369.615238 638.73219 392.679619 647.314286 417.889524 656.432762 463.481905 660.72381 540.720762 660.72381 612.59581 660.72381 674.816 659.651048 725.77219 656.969143 728.990476 640.877714 729.526857 639.804952 734.890667 626.93181 735.427048 625.322667 737.03619 622.640762 738.645333 618.886095 689.834667 625.859048 632.441905 628.540952 545.01181 628.540952 421.64419 628.540952 394.288762 623.177143 361.033143 590.994286 348.696381 579.193905 346.550857 577.048381 342.79619 574.366476L342.79619 448.853333C342.79619 424.71619 343.332571 409.697524 345.478095 394.678857 332.068571 396.824381 322.413714 397.360762 305.249524 397.360762L286.47619 397.360762C267.166476 397.360762 258.048 396.824381 246.247619 394.678857L246.247619 429.543619C258.584381 427.398095 267.702857 426.861714 284.330667 426.861714L310.613333 426.861714 310.613333 573.830095ZM450.608762 371.614476 427.544381 382.878476C438.272 396.824381 441.490286 401.65181 446.854095 412.379429L407.161905 412.379429C385.170286 412.379429 374.442667 411.843048 360.496762 409.697524L360.496762 441.344C374.979048 439.198476 386.779429 438.662095 406.625524 438.662095L413.598476 438.662095C411.989333 510.537143 399.11619 543.792762 361.569524 574.902857 372.833524 581.339429 378.733714 586.166857 386.779429 595.285333 416.280381 566.857143 429.689905 541.647238 437.735619 497.127619L506.392381 497.127619C506.392381 508.928 503.710476 533.065143 500.49219 556.129524 498.883048 567.393524 493.519238 571.14819 479.036952 571.14819 474.745905 571.14819 469.918476 570.61181 465.627429 570.075429 452.217905 567.929905 452.217905 567.929905 445.244952 567.393524 449.536 580.266667 450.608762 586.166857 451.145143 597.430857 462.409143 598.503619 469.382095 599.04 481.182476 599.04 506.392381 599.04 519.265524 593.67619 524.092952 579.730286 529.456762 565.784381 534.28419 531.456 536.429714 486.936381 536.966095 476.208762 536.966095 474.599619 538.038857 469.23581 526.238476 470.844952 512.292571 471.381333 494.055619 471.381333L441.490286 471.381333C442.563048 461.190095 443.099429 451.535238 443.63581 438.662095L513.365333 438.662095C533.211429 438.662095 542.866286 439.198476 557.884952 441.344L557.884952 409.697524C543.939048 411.843048 533.74781 412.379429 513.901714 412.379429L480.109714 412.379429C472.600381 397.360762 465.627429 385.560381 459.727238 376.441905 459.190857 375.369143 458.118095 373.76 457.045333 371.614476L489.22819 371.614476C509.074286 371.614476 523.556571 372.150857 534.28419 372.687238 533.74781 362.496 533.211429 349.086476 533.211429 325.485714L533.211429 270.238476C533.211429 242.883048 533.74781 234.837333 535.356952 223.036952 524.092952 224.646095 510.683429 225.182476 486.009905 225.182476L465.091048 225.182476C471.527619 210.70019 474.745905 204.263619 479.036952 191.926857L446.854095 185.490286C444.17219 199.43619 440.953905 210.70019 434.517333 225.182476L430.226286 225.182476C407.698286 225.182476 394.288762 224.646095 383.561143 223.036952 385.170286 234.300952 385.706667 243.95581 385.706667 270.774857L385.706667 324.412952C385.706667 347.477333 385.170286 362.496 383.561143 373.76 395.361524 372.150857 407.161905 371.614476 430.762667 371.614476L450.608762 371.614476ZM413.062095 249.856 505.856 249.856 505.856 286.329905 413.062095 286.329905 413.062095 249.856ZM413.062095 309.930667 505.856 309.930667 505.856 347.477333 413.062095 347.477333 413.062095 309.930667ZM666.233905 304.566857C663.552 366.250667 659.260952 395.215238 646.38781 436.516571 633.514667 416.670476 625.468952 405.942857 599.722667 372.687238L577.731048 391.460571C604.550095 425.788952 612.59581 437.052952 634.051048 470.308571 609.913905 520.192 586.849524 548.08381 540.184381 584.021333 549.839238 590.994286 556.27581 597.430857 564.321524 609.231238 606.159238 572.757333 629.223619 544.329143 652.288 499.809524 674.816 537.35619 682.325333 551.302095 703.24419 593.13981L728.454095 569.539048C696.807619 513.755429 686.616381 496.591238 666.770286 466.553905 685.543619 417.206857 692.516571 376.978286 695.734857 304.566857 715.044571 305.103238 720.408381 305.639619 730.063238 307.248762L730.063238 272.384C719.335619 274.529524 705.389714 275.602286 682.325333 275.602286L613.13219 275.602286C615.814095 266.48381 616.886857 261.656381 621.714286 243.419429 628.687238 213.382095 630.832762 206.409143 634.051048 197.290667L599.186286 190.854095C598.113524 217.673143 590.60419 252.537905 579.34019 286.866286 567.53981 322.80381 559.494095 341.040762 543.402667 367.323429 555.203048 372.687238 561.103238 376.441905 570.221714 385.024 586.849524 353.913905 591.676952 342.649905 604.550095 304.566857L666.233905 304.566857ZM356.742095 296.521143C331.53219 257.365333 322.950095 247.174095 276.821333 197.827048L251.611429 218.209524C286.47619 254.683429 305.249524 278.820571 329.386667 319.049143L356.742095 296.521143Z" />

</svg>
