<?xml version="1.0" encoding="utf-8"?>
<!DOCTYPE svg PUBLIC "-//W3C//DTD SVG 1.1//EN" "http://www.w3.org/Graphics/SVG/1.1/DTD/svg11.dtd">
<svg style="width:308px;height:308px;" version="1.1" id="图形" xmlns="http://www.w3.org/2000/svg" xmlns:xlink="http://www.w3.org/1999/xlink" x="0px" y="0px" width="1024px" height="1024px" viewBox="0 0 1024 1024" enable-background="new 0 0 1024 1024" xml:space="preserve">
  <path class="svgpath" data-index="path_0" fill="#00bb9c" d="M18.478352 515.736091c0 0-7.55814-201.405079 152.077627-336.481498 158.611437-140.53371 358.157169-140.192949 502.443343-66.514903 236.723469 127.916345 241.571894 338.298889 241.571894 338.298889l89.165786 59.400878-87.119173 58.274218c0 0-11.328 172.33602-153.567561 290.016233S469.851553 967.110315 469.851553 967.110315s-144.776338 8.276501-277.806143-95.077426S11.710204 598.438675 18.478352 515.736091zM269.552667 532.295232c0 30.181393-5.395894 51.167357-16.188704 62.956867l-6.895037 5.695722c-15.190981 9.593496-34.776038 16.886599-58.760289 21.88545 8.993838 12.591783 15.486716 23.984251 19.48682 34.17638 50.562583-16.188704 81.043804-38.777165 91.437525-67.754127 4.197602-13.791098 6.29538-36.47268 6.29538-68.053955 8.394181-0.599657 16.886599-0.997724 25.482371-1.199315 0 72.550363 0.299829 110.325711 0.899486 113.322975 1.798972 5.995551 5.395894 10.689457 10.79281 14.090926 15.786545 7.794523 42.070164 9.78997 78.846766 5.995551 0-0.201591 0.299829-0.299829 0.899486-0.299829 10.989285-1.798972 18.9854-5.695722 23.984251-11.692297 6.193049-8.394181 12.788258-27.384697 19.785625-56.961316-12.192693-1.995447-24.582885-6.29538-37.174668-12.891611-0.599657 9.593496-2.800789 20.788465-6.595208 33.577746-2.600221 7.392364-6.29538 11.692297-11.092639 12.891611-4.39817 0.796132-11.19497 1.297552-20.386306 1.499144-11.992125 0-18.887163-1.101077-20.686135-3.298116-1.400906-1.400906-2.201132-5.499248-2.39863-12.291954l0-86.041632c7.992021-0.196475 16.086373-0.398066 24.283056-0.599657 4.797259 5.995551 9.893324 11.692297 15.289218 17.08819 13.987572-15.589047 22.784936-24.882714 26.381857-27.881001-23.984251-23.984251-37.278022-37.372166-39.873126-40.172955l-19.786649-19.48682c-7.194866 7.396457-15.992229 15.289218-26.381857 23.684422l16.788361 17.388019-95.03547 3.597945c19.786649-11.588943 37.572734-24.283056 53.363372-38.074154-2.998287-2.39863-5.995551-5.096065-8.993838-8.094352l138.206712 0.899486 0-36.275181-118.420063 0.899486c4.197602-2.998287 9.190313-7.194866 14.989389-12.591783l-26.981515-32.078603c-10.193153 9.795087-19.786649 17.289782-28.780487 22.485107 6.595208 7.396457 12.591783 14.792914 17.987676 22.185278l-119.319549-0.899486 0 36.275181 83.942831-0.899486c-18.189268 20.985964-38.177508 35.375695-59.959603 43.171242 4.797259 12.591783 8.192589 25.384134 10.193153 38.373982 24.582885-2.595105 39.371706-4.094248 44.369533-4.497431L269.548574 532.295232zM521.680988 618.037035l-1.199315 35.975353 36.275181 0-0.899486-35.975353L555.857369 479.231689l0.599657-26.981515-5.096065 0c3.794419-9.593496 7.392364-18.887163 10.79281-27.881001 1.798972-4.797259 3.695159-10.389628 5.695722-16.788361l7.494695-25.482371c-9.593496-1.39579-22.587438-4.895497-38.97364-10.492982-2.000564 13.991666-3.700275 23.084765-5.096065 27.281343-0.201591 2.000564-0.703011 4.000104-1.499144 5.995551-5.395894 20.587897-13.093203 39.774889-23.084765 57.560974-7.194866 11.392468-14.792914 20.188808-22.784936 26.381857 9.190313 12.591783 15.987113 25.585725 20.386306 38.97364 5.593392-5.995551 11.392468-12.891611 17.388019-20.686135L521.679965 618.037035zM564.551378 614.440114l0 33.577746 26.082028-0.599657 151.996786 0 26.082028 0.599657 0-33.577746-26.981515 0.599657L741.730707 471.735971l0.899486-28.480658-26.981515 0.899486-33.277918 0c0.196475-4.797259 0.697895-9.593496 1.499144-14.390755l51.265594 0 24.882714 0.899486L760.018212 397.086807l-24.882714 0.899486L685.6699 397.986293c0.599657-7.794523 1.297552-15.486716 2.098801-23.084765-15.791661-0.196475-28.982078-1.199315-39.573297-2.998287l-0.299829 26.082028-45.26902 0-27.281343-0.899486 0 33.577746 27.281343-0.899486 44.369533 0c-0.201591 4.797259-0.403183 9.593496-0.599657 14.390755l-30.27963 0-26.082028-0.899486 0.899486 28.480658 0 143.302777L564.551378 614.440114zM626.609783 487.026212l0-12.291954L706.954669 474.734258l0 12.291954L626.609783 487.026212zM706.954669 515.50687l0 12.291954-80.345909 0 0-12.291954L706.954669 515.50687zM626.609783 569.769728l0-12.591783L706.954669 557.177945l0 12.591783L626.609783 569.769728zM626.609783 615.038748l0-17.388019L706.954669 597.650729l0 17.388019L626.609783 615.038748z" />

</svg>
