<?xml version="1.0" encoding="utf-8"?>
<!DOCTYPE svg PUBLIC "-//W3C//DTD SVG 1.1//EN" "http://www.w3.org/Graphics/SVG/1.1/DTD/svg11.dtd">
<svg style="width:308px;height:308px;" version="1.1" id="图形" xmlns="http://www.w3.org/2000/svg" xmlns:xlink="http://www.w3.org/1999/xlink" x="0px" y="0px" width="1024px" height="1024px" viewBox="0 0 1024 1024" enable-background="new 0 0 1024 1024" xml:space="preserve">
  <path class="svgpath" data-index="path_0" fill="#272636" d="M903.340032 199.501824 760.496128 56.630272C729.529344 25.491456 667.998208 0 623.971328 0L144.038912 0c-44.04224 0-80.036864 35.981312-80.036864 80.007168l0 863.925248c0 44.0576 35.994624 80.067584 80.036864 80.067584l735.9232 0c44.041216 0 80.03584-36.009984 80.03584-80.067584L959.997952 335.985664C959.997952 291.991552 934.463488 230.547456 903.340032 199.501824L903.340032 199.501824zM703.993856 92.611584c4.342784 3.013632 8.101888 6.052864 11.342848 9.18528L858.243072 244.67456c3.15392 3.196928 6.10304 6.95808 9.222144 11.300864l-163.47136 0L703.993856 92.611584 703.993856 92.611584zM895.996928 943.932416c0 8.695808-7.402496 16.052224-16.034816 16.052224L144.038912 959.98464c-8.630272 0-16.036864-7.356416-16.036864-16.052224L128.002048 80.006144c0-8.628224 7.405568-16.02048 16.036864-16.02048l479.93344 0c4.871168 0 10.273792 0.61952 16.034816 1.709056l0 254.303232 254.239744 0c1.065984 5.73952 1.750016 11.236352 1.750016 15.986688L895.996928 943.932416 895.996928 943.932416zM292.506624 550.981632l154.013696 0 0 300.060672 130.944 0L577.46432 550.981632l154.036224 0 0-100.00384L292.506624 450.977792 292.506624 550.981632z" />

</svg>
