<?xml version="1.0" encoding="utf-8"?>
<!DOCTYPE svg PUBLIC "-//W3C//DTD SVG 1.1//EN" "http://www.w3.org/Graphics/SVG/1.1/DTD/svg11.dtd">
<svg style="width:308px;height:308px;" version="1.1" id="图形" xmlns="http://www.w3.org/2000/svg" xmlns:xlink="http://www.w3.org/1999/xlink" x="0px" y="0px" width="1024px" height="1024px" viewBox="0 0 1024 1024" enable-background="new 0 0 1024 1024" xml:space="preserve">
  <path class="svgpath" data-index="path_0" fill="#eb4f38" d="M512 0C228.894118 0 0 228.894118 0 512s228.894118 512 512 512 512-228.894118 512-512S795.105882 0 512 0zM512 963.764706c-123.482353 0-234.917647-48.188235-316.235294-129.505882 9.035294-123.482353 90.352941-228.894118 201.788235-271.058824C358.4 530.070588 331.294118 478.870588 331.294118 421.647059c0-99.388235 81.317647-180.705882 180.705882-180.705882s180.705882 81.317647 180.705882 180.705882c0 57.223529-27.105882 108.423529-69.270588 141.552941 111.435294 42.164706 192.752941 147.576471 201.788235 271.058824C746.917647 915.576471 635.482353 963.764706 512 963.764706z" />

</svg>
