<?xml version="1.0" encoding="utf-8"?>
<!DOCTYPE svg PUBLIC "-//W3C//DTD SVG 1.1//EN" "http://www.w3.org/Graphics/SVG/1.1/DTD/svg11.dtd">
<svg style="width:308px;height:308px;" version="1.1" id="图形" xmlns="http://www.w3.org/2000/svg" xmlns:xlink="http://www.w3.org/1999/xlink" x="0px" y="0px" width="1024px" height="1024px" viewBox="0 0 1024 1024" enable-background="new 0 0 1024 1024" xml:space="preserve">
  <path class="svgpath" data-index="path_0" fill="#00bb9c" d="M923.684782 225.200018 627.686301 225.200018 627.686301 115.454522c0-11.746532-9.271154-20.297278-20.772093-20.297278L414.094668 95.157243c-11.56643 0-20.609387 8.55177-20.609387 20.297278l0 109.745497L97.293395 225.200018c-19.070334 0-34.238802 15.645328-34.238802 34.45165l0 629.196189c0 18.806321 15.169491 34.697243 34.238802 34.697243l826.391387 0c19.35993 0 34.531468-15.890922 34.531468-34.697243L958.216249 259.651668C958.217273 240.845347 943.044712 225.200018 923.684782 225.200018L923.684782 225.200018zM435.095981 136.211265 435.095981 136.211265l151.503553 0 0 88.988754L435.095981 225.200018 435.095981 136.211265 435.095981 136.211265zM304.070832 266.499633 304.070832 266.499633 717.167265 266.499633l0 66.249867L304.070832 332.7495 304.070832 266.499633 304.070832 266.499633zM889.476679 854.591659 889.476679 854.591659l-757.748007 0 0-560.454572 131.255393 0 0 59.384505c0 11.484565 9.075703 20.789489 20.542872 20.789489l454.1832 0c11.20418 0 20.47738-9.304923 20.47738-20.789489l0-59.384505 131.289162 0L889.476679 854.591659 889.476679 854.591659zM811.955094 567.164391 811.955094 567.164391 598.788134 567.164391c-11.69639 0-20.969591 9.28855-20.969591 20.756743 0 11.746532 9.274224 20.542872 20.969591 20.542872l213.166961 0c11.533684 0 21.067828-8.797363 21.067828-20.542872C833.022922 576.452941 823.488779 567.164391 811.955094 567.164391L811.955094 567.164391zM811.955094 658.350183 811.955094 658.350183 598.788134 658.350183c-11.69639 0-20.969591 8.79634-20.969591 20.279882 0 11.483542 9.274224 21.018709 20.969591 21.018709l213.166961 0c11.533684 0 21.067828-9.535167 21.067828-21.018709C833.022922 667.145499 823.488779 658.350183 811.955094 658.350183L811.955094 658.350183zM577.818543 496.770134 577.818543 496.770134c0 11.746532 9.274224 20.756743 20.969591 20.756743l213.166961 0c11.533684 0 21.067828-9.010211 21.067828-20.756743 0-11.499915-9.533121-20.297278-21.067828-20.297278L598.788134 476.472855C587.092767 476.471832 577.818543 485.270219 577.818543 496.770134L577.818543 496.770134zM473.170135 666.884556 473.170135 666.884556c-10.222829-10.027377-22.444175-18.561751-35.878139-23.951505l-4.65195-1.949398 2.948145-3.193739c23.427572-23.460318 38.104853-55.45501 38.104853-90.923826 0-35.678594-14.678304-68.181869-38.104853-91.641163-23.491017-23.458271-55.765071-37.892005-91.674932-37.892005-35.418674 0-67.658959 14.432711-91.217515 37.892005-23.459295 23.459295-37.811164 55.962569-37.811164 91.641163 0 35.467793 14.351869 67.463508 37.811164 90.923826l3.243881 3.193739c-15.399735 5.604648-29.389354 14.418384-40.824801 25.901926-9.79611 10.041704-18.348903 22.2477-23.983227 35.94363-5.341658 13.202697-8.289804 27.128871-8.289804 42.527582l0 29.832446c0 11.729136 9.304923 20.75572 20.47738 20.75572l281.613866 0c11.499915 0 20.510126-9.026584 20.510126-20.75572l0-29.832446c0-15.398712-2.8847-29.323862-8.257058-42.527582C491.811704 689.132256 483.260957 676.925237 473.170135 666.884556L473.170135 666.884556zM282.086122 484.056578 282.086122 484.056578c15.661701-15.873526 37.842887-25.194822 61.827137-25.194822 24.703635 0 46.427402 9.321296 62.318324 25.194822 16.119119 16.121166 25.916253 38.366819 25.916253 62.808488 0 23.723308-9.797134 45.953611-25.916253 61.59894-33.945113 34.468023-89.939405 34.468023-124.145461 0-16.120143-15.645328-25.950022-37.876656-25.950022-61.59894C256.1361 522.423397 265.964956 500.177743 282.086122 484.056578L282.086122 484.056578zM464.388121 754.416122 464.388121 754.416122 224.420771 754.416122l0-9.060353c0-9.763364 1.670036-19.082614 4.816702-26.621311 3.439332-8.584516 8.616238-16.399505 15.170514-22.771633 12.71151-12.435217 29.847795-20.018939 48.917106-20.018939l101.669564 0c9.763364 0 18.544355 1.686409 26.40744 5.371334 8.322549 3.162016 16.119119 8.061606 22.445198 14.646582 6.354731 6.372128 11.498892 14.187117 15.169491 22.771633 3.40761 7.537673 5.372358 16.857946 5.372358 26.621311L464.389144 754.416122 464.388121 754.416122z" />

</svg>
